<svg width="237.30946624055267" height="164.17499999999998" viewBox="0 0 350 242.13635852921874" xmlns="http://www.w3.org/2000/svg" version="1.1" xmlns:xlink="http://www.w3.org/1999/xlink"><defs id="SvgjsDefs7748"><linearGradient id="SvgjsLinearGradient7755"><stop id="SvgjsStop7756" stop-color="#905e26" offset="0"></stop><stop id="SvgjsStop7757" stop-color="#f5ec9b" offset="0.5"></stop><stop id="SvgjsStop7758" stop-color="#905e26" offset="1"></stop></linearGradient><linearGradient id="SvgjsLinearGradient7759"><stop id="SvgjsStop7760" stop-color="#905e26" offset="0"></stop><stop id="SvgjsStop7761" stop-color="#f5ec9b" offset="0.5"></stop><stop id="SvgjsStop7762" stop-color="#905e26" offset="1"></stop></linearGradient></defs><g id="SvgjsG7749" featurekey="symbolFeature-0" transform="matrix(0.5723493525369064,0,0,0.5723493525369064,60.585695483150886,-44.47155167880406)" fill="#F0E495"><g xmlns="http://www.w3.org/2000/svg"><path d="M182.4,123.3c6.4,1.9,12.9,3.2,19.5,4.1c1.7,0.2,3.4,0.4,5,0.6c0.1-0.6,0.2-1.3,0.3-1.9c0.7-4.3,1.5-8.7,2.2-13   c1.6-9.7,3.3-19.5,6.4-28.8c0.6-1.7,1.2-3.4,1.8-5.1c-4-0.6-8.1-1-12.1-1.2c-1-0.1-2-0.1-2.9-0.1c-0.7,5.6-2.1,11.1-4.1,16.3   c-2.8,7.5-6.4,14.7-10.8,21.5C186.1,118.2,184.3,120.7,182.4,123.3z"></path><path d="M204.9,146.2c0.2-3.1,0.4-6.2,0.8-9.3c-4.4-0.4-8.7-1.1-13-1.9c-5.5-1-11-2.4-16.3-4.1c-1,1.2-2.1,2.4-3.2,3.6   c-7.1,7.8-15.1,14.7-23.9,20.5c-2.5,1.7-5.1,3.3-7.8,4.8c1.6,7.2,2.2,14.8,1.6,22.1c-0.2,3-0.6,6.1-1.2,9.1   c1.5-0.2,2.9-0.4,4.4-0.6c20.3-2.8,40.4-6.7,60.2-11.9C204.9,167.8,204.3,157,204.9,146.2z"></path><path d="M133.1,217.4c-0.6,1.4-1.3,2.7-1.9,4c2.8,1,5.6,2.1,8.3,3.4c9.2,4.3,17.8,10,25.2,16.9c0.2,0.2,0.5,0.4,0.7,0.6   c13.1-17.3,25.7-35.1,37.1-53.5c-20.7,5.1-41.6,8.9-62.8,11.4C137.9,206.1,135.7,211.8,133.1,217.4z"></path><path d="M215.9,128.6c6,0.2,12.1,0.1,18.1-0.4c2.6-6.3,5-12.6,7.3-19.1c2.4-7.1,4.7-14.3,6.2-21.7c-0.9-0.4-1.9-0.8-2.8-1.2   c-5.8-2.3-11.8-4.2-18-5.6c-3.4,8.4-5.4,17.4-7.1,26.3c-0.8,4.3-1.5,8.7-2.2,13C216.9,122.9,216.4,125.7,215.9,128.6z"></path><path d="M220.6,137.7c-2,0-3.9-0.1-5.9-0.2c-1.1,10.4-1.3,20.8-0.3,31.1c5.7-10.2,10.9-20.6,15.7-31.2   C226.9,137.6,223.7,137.7,220.6,137.7z"></path><path d="M244.2,126.9c9.6-1.7,19-4.4,28.1-8.2c4.4-1.9,8.7-4,12.8-6.3c-5.2-5.1-10.9-9.8-17.1-13.9c-3.8-2.6-7.8-4.9-12.1-7.1   c-2.6,11.6-6.6,22.9-11,34C244.6,125.8,244.4,126.4,244.2,126.9z"></path><path d="M246.8,135.5c-2.2,0.4-4.4,0.7-6.6,1c-3,7.1-6.3,14.1-9.7,21c-2.9,5.7-5.9,11.3-9,16.8c16.6-4.9,32.9-10.6,48.9-17.3   c12.2-5.2,24.1-10.9,35.8-17.2c-0.7-1.2-1.4-2.4-2.1-3.5c-3.6-5.9-7.8-11.7-12.7-17.2c-4.3,2.5-8.8,4.8-13.4,6.8   C268,130.3,257.6,133.7,246.8,135.5z"></path><path d="M216.9,185c1.8,7.9,4.2,15.6,7.3,23.1c4.3,10.1,9.8,19.6,16.4,28.4c0.3,0.4,0.7,0.9,1,1.3c5.2-8.4,11.3-16.3,18-23.6   c8.4-9.1,17.8-17.3,28.1-24.1c9.9-6.5,20.5-11.9,31.6-16.1c-0.9-3.9-1.9-7.8-3.2-11.6c-1.6-4.9-3.6-9.8-5.8-14.5   c-7.2,3.9-14.4,7.5-21.8,10.9C265.4,169.5,241.4,178.2,216.9,185z"></path><path d="M321,182.9c-1.4,0.5-2.9,1.1-4.3,1.7c-11.5,4.9-22.3,11.2-32.2,18.7c-10,7.8-18.9,16.8-26.7,26.8c-3.6,4.7-6.9,9.6-10,14.7   c6.6,7.1,13.9,13.6,21.6,19.6c7.3,5.6,14.9,10.8,22.5,15.9c4.7-5.3,8.9-11,12.6-17c4.5-7.3,8.3-15.4,11.3-24.1   c2.7-8,4.7-16.7,5.7-25.9C322.6,203.4,322.4,193.1,321,182.9z"></path><path d="M221,222.2c-4.6-9-8.4-18.5-11.1-28.3c-11.8,18.9-24.8,37.1-38.2,54.8c1.8,2,3.6,4.1,5.3,6.3c3.8,4.8,7.4,9.9,10.6,15.2   c3.3,5.5,6.2,11.3,8.7,17.2c4.8-1.2,9.7-2.1,14.6-2.5c2.4-0.2,4.8-0.3,7.2-0.3c1.4,0,2.8,0,4.1,0.1c1-4.5,2.2-8.9,3.6-13.3   c2.9-8.8,6.6-17.3,11-25.4C230.7,238.6,225.4,230.7,221,222.2z"></path><path d="M220.5,293.6c-0.8,0-1.5,0-2.3,0c-3.5,0-6.9,0.2-10.4,0.7c-2.8,0.4-5.5,0.9-8.2,1.6c0.8,2.1,1.5,4.2,2.2,6.3   c2.1,6.5,3.8,13.2,5.3,19.9c4.3-0.3,8.7-0.8,13.2-1.5c-0.3-1.2-0.5-2.3-0.7-3.5c-0.7-5.1-0.7-10.2-0.2-15.4   C219.6,298.9,220,296.3,220.5,293.6z"></path><path d="M270.1,276.1c-9.5-7-18.7-14.4-26.9-23c-1.7,3.3-3.3,6.7-4.8,10.1c-3,7.3-5.4,14.8-7.2,22.5c5.1,0.9,10,2.4,14.8,4.2   c5.8,2.3,11.5,5,16.9,8.3c1.7,1,3.4,2.1,5.1,3.2c0.1-0.1,0.3-0.2,0.4-0.3c6.2-4.2,12-8.9,17.3-14.2c-0.2-0.2-0.5-0.3-0.7-0.5   C279.9,283.2,274.9,279.7,270.1,276.1z"></path><path d="M229.4,294.5c-0.3,1.7-0.6,3.3-0.8,5c-0.6,5.2-0.9,10.4-0.3,15.6c0.2,1.2,0.4,2.4,0.7,3.6c10.5-2.6,20.8-6.6,30.4-12   c-4.5-2.7-9.1-5.2-13.9-7.3C240.3,297.3,234.9,295.6,229.4,294.5z"></path><path d="M146.8,266.4c0,0-0.1,0.1-0.1,0.1c-0.2,0.3-0.4,0.5-0.6,0.8C146.4,267,146.6,266.7,146.8,266.4z"></path><path d="M158.7,250.9c0.4-0.5,0.7-0.9,1.1-1.4c-2.3-2.2-4.7-4.3-7.3-6.3c-6.1-4.6-12.6-8.4-19.6-11.5c-2-0.8-4-1.6-6.1-2.3   c-3.7,6.5-7.7,12.8-12.1,18.9c-5,7.1-10.4,13.9-15.8,20.7c1.3,1.9,2.8,3.9,4.4,6c5.2,6.7,11.1,12.9,17.6,18.4   c0.5,0.4,0.9,0.8,1.4,1.2c8.9-8.6,16.8-18.3,24.3-28.1C150.8,261.3,154.7,256.1,158.7,250.9z"></path><path d="M187.6,290c-4.4-9.9-9.9-19.3-16.5-27.9c-1.6-2.1-3.3-4.1-5.1-6.1c-0.9,1.1-1.7,2.2-2.6,3.3c-9.4,12.2-18.5,24.7-29.1,35.9   c-1.6,1.6-3.1,3.3-4.7,4.8c4.2,3,8.7,5.7,13.2,8.1c2.9,1.5,5.9,3,8.9,4.3c0.1-0.1,0.2-0.1,0.2-0.2c2.9-2.7,6-5.3,9.1-7.7   c4.3-3.4,8.8-6.4,13.7-9C179,293.5,183.2,291.6,187.6,290z"></path><path d="M186.1,300.2c-6.6,2.9-12.8,6.4-18.6,10.8c-2.1,1.6-4.2,3.3-6.2,5.1c2,0.7,4,1.3,6,1.8c8.3,2.3,17.1,3.7,26.3,4.2   c1.4,0.1,2.8,0.1,4.3,0.1c-1.9-8.1-4.1-16.1-6.9-23.9C189.3,298.9,187.7,299.6,186.1,300.2z"></path><path d="M113.2,193.7c3.7-0.3,7.4-0.6,11-0.9c2.8-0.2,5.6-0.5,8.3-0.8c0.5-2.1,0.9-4.3,1.2-6.4c0.7-6.1,0.8-12.1,0-18.2   c-0.2-1.1-0.3-2.2-0.6-3.3c-6.1,3-12.5,5.4-19,7.4c-11.1,3.3-22.7,5.2-34.2,5.2c-1.3,6.5-2.1,13.1-2.3,19.7   c8.3-0.2,16.6-0.9,24.8-1.7C106.1,194.3,109.7,194,113.2,193.7z"></path><path d="M109.8,216.3c4.3,0.6,8.5,1.3,12.7,2.4c1.6-3.1,3-6.2,4.4-9.4c1.1-2.7,2.1-5.4,3.1-8.1c-1.3,0.1-2.6,0.3-4,0.4   c-6.5,0.6-13,1.1-19.5,1.7c-6.5,0.6-13,1.3-19.6,1.7c-3,0.2-6,0.3-9.1,0.4c0.2,3.9,0.5,7.9,1.1,11.8c0.2,0,0.4-0.1,0.5-0.1   c6-1,12-1.6,18.1-1.6C101.6,215.5,105.7,215.8,109.8,216.3z"></path><path d="M117.9,226.9c-2.7-0.6-5.5-1.2-8.3-1.6c-4.1-0.5-8.3-0.8-12.4-0.8c-4.2,0-8.4,0.3-12.6,0.8c-1.4,0.2-2.8,0.4-4.2,0.7   c0.1,0.3,0.1,0.7,0.2,1c1.8,8.4,4.8,16.9,8.8,25.5c1.3,2.8,2.8,5.6,4.4,8.5c1.9-2.3,3.7-4.7,5.5-7   C106.1,245.3,112.4,236.3,117.9,226.9z"></path><path d="M153.5,109.3c5.4,4,11.2,7.3,17.4,9.9c0.9,0.4,1.7,0.7,2.6,1c0-0.1,0.1-0.1,0.1-0.2c5.9-7.7,11-16,14.9-25   c2.3-5.6,4.1-11.3,5-17.3c-0.2,0-0.4,0-0.6,0c-9.1,0.6-18.1,2.1-26.6,4.6c-8.2,2.4-16.3,5.7-24.2,10c-0.8,0.4-1.6,0.9-2.4,1.3   c1.1,1.9,2.3,3.8,3.7,5.6C146.3,103.1,149.7,106.4,153.5,109.3z"></path><path d="M127,129.7c3,3.7,5.7,7.6,7.9,11.8c1.5,3,2.9,6.1,4.1,9.2c4.4-2.6,8.7-5.5,12.8-8.6c5.6-4.4,10.8-9.4,15.6-14.7   c-0.7-0.3-1.4-0.6-2-0.9c-8.4-3.7-16.3-8.6-23-15c-3.3-3.2-6.3-6.7-8.8-10.6c-0.5-0.8-1-1.6-1.5-2.5c-3.9,2.7-7.8,5.6-11.6,8.9   c-2.5,2.1-4.9,4.4-7.4,6.9C118.2,119,122.7,124.3,127,129.7z"></path><path d="M123.8,158.5c2.4-1,4.8-2.2,7.2-3.4c-0.5-1.5-1-3-1.6-4.5c-2.2-5-4.9-9.7-8.2-14.1c-4.3-5.5-8.9-10.9-14.1-15.6   c-1.4,1.6-2.8,3.4-4.3,5.4c-5.2,6.8-9.7,14.3-13.5,22.3c-2.9,6.1-5.2,12.5-7,19c3.9-0.1,7.8-0.4,11.6-0.9   C104.1,165.3,114.2,162.5,123.8,158.5z"></path></g></g><g id="SvgjsG7750" featurekey="fiAKjI-0" transform="matrix(4.354316729767204,0,0,4.354316729767204,-3.657626198345452,133.78701544615345)" fill="#F0E495"><path d="M0.84 20 l0 -13.7 l3.1 0 l0 10.86 l6.36 0 l0 2.84 l-9.46 0 z M11.72 20 l0 -13.7 l10.02 0 l0 2.8 l-6.92 0 l0 2.58 l6.4 0 l0 2.72 l-6.4 0 l0 2.8 l6.94 0 l0 2.8 l-10.04 0 z M37.14 13.120000000000001 c0 4.1 -2.84 7.16 -6.94 7.16 c-4.34 0 -7.38 -3.18 -7.38 -7.14 c0 -3.9 2.94 -7.12 7.38 -7.12 c2.56 0 4.54 1.04 5.78 2.82 l-2.28 1.94 c-0.92 -1.16 -2.06 -1.86 -3.5 -1.86 c-2.38 0 -4.22 1.76 -4.22 4.3 c0 2.4 1.72 4.18 4.14 4.18 c1.84 0 3.04 -0.92 3.56 -2.38 l-3.64 0 l0 -2.7 l7.1 0 l0 0.8 z M46.160000000000004 14.9 l-1.78 -5.36 l-1.78 5.36 l3.56 0 z M47.86000000000001 20 l-0.78 -2.36 l-5.38 0 l-0.78 2.36 l-3.18 0 l4.84 -13.7 l3.8 0 l4.82 13.7 l-3.34 0 z M57.540000000000006 9.14 l-2.28 0 l0 3.66 l2.18 0 c1.34 0 2.16 -0.76 2.16 -1.82 s-0.68 -1.84 -2.06 -1.84 z M55.260000000000005 15.34 l0 4.66 l-3.1 0 l0 -13.7 l5.84 0 c2.92 0 4.72 1.88 4.72 4.56 c0 2.14 -1.42 3.92 -3.74 4.38 l4.36 4.76 l-4.04 0 z M67.56 20 l-3.1 0 l0 -13.7 l3.1 0 l0 13.7 z M77.62 20 l-2.88 -4.54 l-2.84 4.54 l-3.44 0 l4.6 -6.88 l-4.46 -6.82 l3.6 0 l2.76 4.38 l2.74 -4.38 l3.46 0 l-4.5 6.74 l4.56 6.96 l-3.6 0 z"></path></g><g id="SvgjsG7751" featurekey="sloganFeature-0" transform="matrix(0.703913758780279,0,0,0.703913758780279,34.19753840897311,227.9173000648135)" fill="#2c4dc4"><path d="M1.14 13 c0 -4.04 3.18 -7.2 7.18 -7.2 c1.68 0 3.28 0.56 4.7 1.64 l-0.9 1.4 c-1.18 -0.9 -2.4 -1.34 -3.8 -1.34 c-3.02 0 -5.38 2.42 -5.38 5.5 s2.38 5.5 5.38 5.5 c1.52 0 2.82 -0.48 3.8 -1.42 l0.92 1.38 c-1.22 1.1 -2.94 1.74 -4.72 1.74 c-4 0 -7.18 -3.18 -7.18 -7.2 z M27.387 20 l-1.22 -2.84 l-6.24 0 l-1.22 2.84 l-1.92 0 l6.16 -14.2 l0.2 0 l6.16 14.2 l-1.92 0 z M20.647 15.48 l4.8 0 l-2.4 -5.54 z M38.653999999999996 6 c4.64 0 7.2 2.84 7.2 7 s-2.56 7 -7.2 7 l-4.8 0 l0 -14 l4.8 0 z M38.754 18.28 c3.4 0 5.3 -2.12 5.3 -5.28 c0 -3.18 -1.9 -5.28 -5.3 -5.28 l-3.1 0 l0 10.56 l3.1 0 z M60.440999999999995 20 l-1.22 -2.84 l-6.24 0 l-1.22 2.84 l-1.92 0 l6.16 -14.2 l0.2 0 l6.16 14.2 l-1.92 0 z M53.70099999999999 15.48 l4.8 0 l-2.4 -5.54 z M82.91499999999999 20.2 c-4 0 -7.18 -3.2 -7.18 -7.2 s3.18 -7.2 7.18 -7.2 s7.18 3.2 7.18 7.2 s-3.18 7.2 -7.18 7.2 z M82.91499999999999 18.48 c3.04 0 5.32 -2.38 5.32 -5.48 s-2.28 -5.48 -5.32 -5.48 c-3.06 0 -5.34 2.38 -5.34 5.48 s2.28 5.48 5.34 5.48 z M103.082 11.16 c1.76 0.64 2.78 2.24 2.78 4.28 c0 2.38 -1.18 4.48 -5 4.56 l-5.38 0 l0 -14 l5.6 0 c2.46 0 3.14 1.8 3.14 2.94 c0 1 -0.6 1.8 -1.14 2.22 z M100.862 7.619999999999999 l-3.58 0 l0 3.12 l3.2 0 c1.42 0 1.98 -0.72 1.98 -1.58 c0 -0.62 -0.4 -1.54 -1.6 -1.54 z M100.702 18.28 c2.32 0 3.32 -1.16 3.32 -2.84 c0 -1.88 -1.04 -3.2 -3.28 -3.2 l-3.46 0 l0 6.04 l3.42 0 z M113.509 20.2 c-1.6 0 -3.06 -0.9 -3.88 -1.94 l1.24 -1.18 c0.64 0.74 1.62 1.4 2.64 1.4 c1.6 0 2.54 -1 2.54 -3.04 l0 -9.44 l1.78 0 l0 9.66 c0 2.88 -1.6 4.54 -4.32 4.54 z M132.056 18.28 l0.12 1.72 l-8.52 0 l0 -14 l8.12 0 l0.14 1.72 l-6.46 0 l0 3.42 l4.38 0 l0 1.72 l-4.38 0 l0 5.42 l6.6 0 z M146.063 7.720000000000001 l-4.08 0 l0 12.28 l-1.8 0 l0 -12.28 l-4.1 0 l0.12 -1.72 l9.74 0 z M157.41 20.2 c-4 0 -7.18 -3.2 -7.18 -7.2 s3.18 -7.2 7.18 -7.2 s7.18 3.2 7.18 7.2 s-3.18 7.2 -7.18 7.2 z M157.41 18.48 c3.04 0 5.32 -2.38 5.32 -5.48 s-2.28 -5.48 -5.32 -5.48 c-3.06 0 -5.34 2.38 -5.34 5.48 s2.28 5.48 5.34 5.48 z M188.104 7.720000000000001 l-4.08 0 l0 12.28 l-1.8 0 l0 -12.28 l-4.1 0 l0.12 -1.72 l9.74 0 z M192.83100000000002 20 l0 -14 l1.8 0 l0 14 l-1.8 0 z M208.95800000000003 18.28 l0.12 1.72 l-8.52 0 l0 -14 l8.12 0 l0.14 1.72 l-6.46 0 l0 3.42 l4.38 0 l0 1.72 l-4.38 0 l0 5.42 l6.6 0 z M223.82500000000005 6 l1.8 0 l0 14.2 l-0.22 0 l-9.4 -9.98 l0 9.78 l-1.78 0 l0 -14.2 l0.2 0 l9.4 9.98 l0 -9.78 z M239.95200000000003 18.28 l0.12 1.72 l-8.52 0 l0 -14 l8.12 0 l0.14 1.72 l-6.46 0 l0 3.42 l4.38 0 l0 1.72 l-4.38 0 l0 5.42 l6.6 0 z M253.82600000000002 18.54 c0.88 0.82 2.7 1.66 4.52 1.66 c2.8 0 4.58 -1.44 4.58 -3.7 c0 -1.84 -0.88 -2.92 -3.92 -4.64 c-2.32 -1.34 -2.88 -1.78 -2.88 -2.66 c0 -0.94 0.88 -1.68 2.36 -1.68 c0.86 0 2 0.38 2.66 0.8 l0.96 -1.44 c-0.94 -0.62 -2.42 -1.08 -3.6 -1.08 c-2.58 0 -4.3 1.48 -4.3 3.42 c0 1.72 0.86 2.58 3.5 4.02 c2.34 1.28 3.3 2.22 3.3 3.24 c0 1.2 -1.04 1.92 -2.66 1.92 c-1.4 0 -2.8 -0.66 -3.5 -1.3 z M267.93300000000005 14.46 l0 -8.46 l1.8 0 l0 8.32 c0 2.7 1.56 4.08 3.76 4.08 s3.78 -1.38 3.78 -4.08 l0 -8.32 l1.78 0 l0 8.46 c0 3.64 -2.08 5.74 -5.56 5.74 c-3.46 0 -5.56 -2.1 -5.56 -5.74 z M302.987 6 l1.8 0 l0 14 l-1.8 0 l0 -6.44 l-6.94 0 l0 6.44 l-1.8 0 l0 -14 l1.8 0 l0 5.84 l6.94 0 l0 -5.84 z M310.714 20 l0 -14 l1.8 0 l0 14 l-1.8 0 z M317.661 18.54 c0.88 0.82 2.7 1.66 4.52 1.66 c2.8 0 4.58 -1.44 4.58 -3.7 c0 -1.84 -0.88 -2.92 -3.92 -4.64 c-2.32 -1.34 -2.88 -1.78 -2.88 -2.66 c0 -0.94 0.88 -1.68 2.36 -1.68 c0.86 0 2 0.38 2.66 0.8 l0.96 -1.44 c-0.94 -0.62 -2.42 -1.08 -3.6 -1.08 c-2.58 0 -4.3 1.48 -4.3 3.42 c0 1.72 0.86 2.58 3.5 4.02 c2.34 1.28 3.3 2.22 3.3 3.24 c0 1.2 -1.04 1.92 -2.66 1.92 c-1.4 0 -2.8 -0.66 -3.5 -1.3 z M340.64799999999997 7.720000000000001 l-4.08 0 l0 12.28 l-1.8 0 l0 -12.28 l-4.1 0 l0.12 -1.72 l9.74 0 z M351.99499999999995 20.2 c-4 0 -7.18 -3.2 -7.18 -7.2 s3.18 -7.2 7.18 -7.2 s7.18 3.2 7.18 7.2 s-3.18 7.2 -7.18 7.2 z M351.99499999999995 18.48 c3.04 0 5.32 -2.38 5.32 -5.48 s-2.28 -5.48 -5.32 -5.48 c-3.06 0 -5.34 2.38 -5.34 5.48 s2.28 5.48 5.34 5.48 z M374.74199999999996 11.06 c0 2.26 -1.06 4.2 -3.24 4.84 l3.02 4.1 l-2.16 0 l-2.86 -3.88 l-3.14 0 l0 3.88 l-1.8 0 l0 -14 l5.28 0 c3.3 0 4.9 2.28 4.9 5.06 z M366.36199999999997 7.68 l0 6.74 l3.4 0 c2.26 0 3.18 -1.66 3.18 -3.36 s-0.92 -3.38 -3.18 -3.38 l-3.4 0 z M380.06899999999996 20 l0 -14 l1.8 0 l0 14 l-1.8 0 z M396.9959999999999 20 l-1.22 -2.84 l-6.24 0 l-1.22 2.84 l-1.92 0 l6.16 -14.2 l0.2 0 l6.16 14.2 l-1.92 0 z M390.256 15.48 l4.8 0 l-2.4 -5.54 z"></path></g></svg>